<svg width="50" height="50" viewBox="0 0 50 50" fill="none" xmlns="http://www.w3.org/2000/svg">
<path d="M25 1C20.0555 1 15.222 2.40758 11.1108 5.04473C6.99952 7.68188 3.79521 11.4302 1.90302 15.8156C0.0108321 20.201 -0.484251 25.0266 0.480379 29.6822C1.44501 34.3377 3.82603 38.6141 7.32234 41.9706C10.8187 45.327 15.2732 47.6128 20.1227 48.5388C24.9723 49.4649 29.9989 48.9896 34.5671 47.1731C39.1352 45.3566 43.0397 42.2805 45.7867 38.3337C48.5338 34.3869 50 29.7467 50 25C49.9926 18.637 47.3564 12.5366 42.6696 8.03723C37.9827 3.53789 31.6282 1.00706 25 1ZM17.7847 7.66667C19.12 7.14909 20.5114 6.77641 21.9329 6.55555C25.0251 8.03085 27.6523 10.2701 29.5445 13.043C31.4367 15.8159 32.5255 19.0226 32.6991 22.3333H26.6042L17.7847 7.66667ZM26.6042 27.6667H44.2431C44.0377 29.0347 43.6736 30.3764 43.1574 31.6667C40.2816 33.4961 36.9509 34.5588 33.5066 34.7459C30.0622 34.9329 26.6279 34.2376 23.5556 32.7311L26.6042 27.6667ZM44.2431 22.3333H38.2616C38.1048 18.4454 36.9605 14.6531 34.9282 11.2867C34.1646 10.0168 33.2821 8.81626 32.2917 7.7C35.4394 8.9277 38.1983 10.9239 40.2946 13.4907C42.391 16.0576 43.7522 19.1058 44.2431 22.3333ZM12.9792 10.3444L15.9722 15.3089C12.5435 17.383 9.69465 20.23 7.67362 23.6022C6.90945 24.8769 6.26791 26.2157 5.75695 27.6022C5.27605 24.3701 5.69035 21.0734 6.95819 18.0439C8.22603 15.0143 10.3027 12.3588 12.9792 10.3444ZM9.9051 36.7489C9.69388 33.4449 10.4017 30.1463 11.9559 27.1914C13.5102 24.2366 15.855 21.7316 18.75 19.9333L21.7917 25L12.9792 39.6667C11.8456 38.8058 10.8146 37.8273 9.9051 36.7489ZM17.7755 42.3289L20.7662 37.3578C24.3546 39.1734 28.3512 40.1187 32.4074 40.1111C33.9283 40.1107 35.4461 39.9783 36.9421 39.7155C34.2678 41.7251 31.0904 43.0247 27.7281 43.4841C24.3659 43.9435 20.9369 43.5467 17.7847 42.3333L17.7755 42.3289Z" fill="white"/>
</svg>
